<?xml version="1.0" encoding="utf-8"?>
<!-- Generator: Adobe Illustrator 16.0.0, SVG Export Plug-In . SVG Version: 6.00 Build 0)  -->
<!DOCTYPE svg PUBLIC "-//W3C//DTD SVG 1.1//EN" "http://www.w3.org/Graphics/SVG/1.1/DTD/svg11.dtd" [
	<!ENTITY st0 "display:none;fill-rule:evenodd;clip-rule:evenodd;fill:#040000;">
	<!ENTITY st1 "fill-rule:evenodd;clip-rule:evenodd;fill:none;stroke:#040000;stroke-width:50;stroke-miterlimit:10;">
	
		<!ENTITY st2 "display:none;fill-rule:evenodd;clip-rule:evenodd;fill:#040000;stroke:#FFFFFF;stroke-width:40;stroke-miterlimit:10;">
	<!ENTITY st3 "display:inline;">
	<!ENTITY st4 "display:none;fill-rule:evenodd;clip-rule:evenodd;fill:#FFFFFF;">
	<!ENTITY st5 "display:none;">
	<!ENTITY st6 "display:none;fill-rule:evenodd;clip-rule:evenodd;">
	<!ENTITY st7 "fill-rule:evenodd;clip-rule:evenodd;fill:#040000;">
]>
<svg version="1.1" id="图层_1" xmlns="http://www.w3.org/2000/svg" xmlns:xlink="http://www.w3.org/1999/xlink" x="0px" y="0px"
	 width="2658.189px" height="1948.142px" viewBox="0 0 2658.189 1948.142" style="enable-background:new 0 0 2658.189 1948.142;"
	 xml:space="preserve">
<rect x="-753.989" y="-392" style="&st6;" width="2296" height="2344"/>
<polygon style="&st2;" points="982.783,1107.307 394.475,1447.5 -194.761,1107.307 -194.761,426.914 394.475,86.718 
	982.783,426.914 "/>
<path style="&st4;" d="M-65.817,427.568v602.587l56.667-51.003c0,0,0-195.51,0-198.344c18.889-15.112,236.11-171.898,236.11-171.898
	L-65.817,427.568z M-14.817,493.683l200.221,120.895l-28.333,18.89L-14.817,523.906V493.683z M-12.929,537.129l162.444,100.116
	L-12.929,756.252V537.129z M30.516,977.264c0,0,7.32-4.76,7.555-17.002c0.96-49.906-1.889-173.786-1.889-173.786l168.11-107.672
	l-32.111,85.004L66.404,831.811v52.892l88.777-51.002v336.239l-81.222-64.225l32.111,13.222l13.222-228.567l-52.889,26.446v28.335
	l18.889-1.89L30.516,977.264z M202.404,767.585v205.9l86.888,49.113v217.233l39.667,22.668v-255.014l85-64.226V795.92
	c5.513-1.841,13.406-4.561,24.192-20.953c10.703-16.266,119.362-96.164,172.251-130.166
	c-61.389,33.057-175.666,87.838-183.222,85.004c-7.556-2.833-3.777-5.667-24.556-7.556c-2.833-178.509,1.89-269.18,20.778-343.795
	c1.757-0.378,13.222,3.778,13.222,3.778l-47.222-69.893l-45.333,71.782l11.333-5.667c23.611,56.669,29.277,201.177,30.222,343.795
	c-34.982,15.585-37.87,54.638-5.666,75.56c0.944,0.944,0,132.229,0,132.229l-73.667,54.779l-34-17V816.699L202.404,767.585z
	 M232.626,814.811l26.444,17v130.341l-26.444-13.224V814.811z M370.514,760.03c0,39.668,54.777,35.89,54.777,0
	C425.292,724.139,370.514,720.361,370.514,760.03z M385.625,760.03c0,16.056,23.611,17.001,24.556,0S385.625,743.973,385.625,760.03
	z M440.403,863.924l162.443-162.453l143.556,166.231l-66.111-41.559h-51l-15.11,17.001l-20.778-17.001h-85l-11.333,7.557v192.677
	l-41.555,54.78V852.59L440.403,863.924z M464.958,850.701l17-11.334v196.455l-17,22.667V850.701z M600.958,761.919l-73.667,49.113
	h37.778l15.111-11.334l28.333,20.779l13.222-9.445h41.556L600.958,761.919z M685.957,582.465v179.454l41.556,28.334l122.777-71.781
	v-88.783l28.333-20.779V474.793l17-17.001v-56.67l-22.667-5.667l-183.221,90.671l-11.333,17.001v66.114L685.957,582.465z
	 M701.068,489.905l160.555-77.449v20.779l-160.555,75.56V489.905z M712.402,548.463l135.999-62.336l1.889,107.672l-56.667,47.225
	l-81.221,41.558V548.463z M695.402,707.138l18.888-15.112v73.67l-18.888-17.001V707.138z M725.624,690.137v68.003l90.666-54.78
	v-60.448L725.624,690.137z M655.735,1016.932l9.444,15.112c0,0-178.303,144.738-241.776,194.565
	c2.382-1.824,266.161-164.641,268.221-166.23c3.199,0.469,13.223,5.666,13.223,5.666l43.443-5.666l13.223-35.891l-5.666-24.558
	c0.564-0.427,126.753-225.419,126.554-224.789c-1.455-0.368-135.916,183.751-151.11,192.677l-20.777-11.334
	c0,0-10.687,14.215-22.666,28.334C673.582,1001.632,655.735,1016.932,655.735,1016.932z M674.624,1015.043
	c0,0,22.667,34.946,30.223,35.891s41.556,3.777,41.556,3.777l-1.89-49.113l-32.11-32.112c0,0-5.338,13.743-15.111,22.667
	C685.527,1006.894,674.624,1015.043,674.624,1015.043z M689.735,1020.71l17-17.001l18.889,9.445l-3.777,7.556l-15.111-11.334
	l-11.333,11.334l13.222,15.112l5.666-5.667l3.778,3.777l-9.444,7.557L689.735,1020.71z M704.846,1016.932v7.557l17,5.667l17-15.112
	l-18.89-26.445l-9.444,11.333l3.777,3.778l5.667-5.667l11.333,17.001l-9.443,9.445L704.846,1016.932z"/>
<polygon style="&st4;" points="982.783,426.914 -194.761,1107.307 -194.761,426.914 394.475,158 "/>
<path style="&st0;" d="M-65.817,427.568v602.587l56.667-51.003c0,0,0-195.51,0-198.344c18.889-15.112,236.11-171.898,236.11-171.898
	L-65.817,427.568z M-14.817,493.683l200.221,120.895l-28.333,18.89L-14.817,523.906V493.683z M-12.929,537.129l162.444,100.116
	L-12.929,756.252V537.129z M117.17,927.071l2.123-36.702l-52.889,26.446l7.068,26.479l25.957-3.745l-68.914,37.714
	c0,0,7.32-4.76,7.555-17.002c0.96-49.906-1.889-173.786-1.889-173.786l168.11-107.672l-32.111,85.004L66.404,831.811v52.892
	l88.777-51.002l-0.899,71.634 M272.292,837.44v-20.741l-69.888-49.114v110.237 M613.345,640.377
	c-61.389,33.057-178.963,93.069-186.165,89.428c-8.022-4.056-11.489-6.757-24.556-7.556c-2.833-178.509,1.89-269.18,20.778-343.795
	c1.757-0.378,13.222,3.778,13.222,3.778l-47.222-69.893l-45.333,71.782l11.333-5.667c23.611,56.669,29.277,201.177,30.222,343.795
	c-28.163,12.546-35.524,40.303-20.521,61.565 M232.626,814.811l26.444,17v13.27l-26.444,15.279V814.811z M423.661,749.955
	c-5.926-17.026-26.689-22.69-40.441-14.732c-7.355,4.257-12.705,12.411-12.705,24.807c0,7.412,1.912,13.306,5.021,17.758
	 M410.147,757.787c-1.325-14.639-24.522-13.072-24.522,2.243c0,4.295,1.689,7.509,4.184,9.587 M878.623,487.099v-12.306l17-17.001
	v-56.67l-22.667-5.667l-183.221,90.671l-11.333,17.001v66.114l7.555,13.223v15.958 M701.068,489.905l160.555-77.449v20.779
	l-160.555,75.56V489.905z M712.402,583.142v-34.679l135.999-62.336l0.32,18.249 M712.402,583.142l-26.445,15.28l162.765-94.046
	l29.901-17.277"/>
<polygon style="&st1;" points="1810.944,1120.197 1222.636,1460.391 633.4,1120.197 633.4,439.805 1222.636,99.608 
	1810.944,439.805 "/>
<path style="&st7;" d="M762.452,454.892v602.586l56.667-51.002c0,0,0-195.511,0-198.344
	c18.889-15.112,236.11-171.898,236.11-171.898L762.452,454.892z M813.452,521.006l200.222,120.895l-28.333,18.89L813.452,551.23
	V521.006z M815.34,564.453l162.444,100.116L815.34,783.576V564.453z M858.786,1004.588c0,0,7.32-4.76,7.555-17.002
	c0.96-49.906-1.889-173.787-1.889-173.787l168.11-107.672l-32.11,85.004l-105.777,68.003v52.891l88.777-51.002v336.24
	l-81.223-64.225l32.111,13.221l13.223-228.566l-52.889,26.445v28.336l18.889-1.891L858.786,1004.588z M1030.673,794.909v205.899
	l86.888,49.113v217.234l39.667,22.668v-255.014l85-64.227v-147.34c5.513-1.842,13.406-4.562,24.192-20.953
	c10.703-16.266,119.362-96.164,172.251-130.166c-61.389,33.057-175.666,87.838-183.222,85.004
	c-7.556-2.833-3.777-5.667-24.556-7.556c-2.833-178.509,1.89-269.18,20.778-343.795c1.757-0.378,13.222,3.778,13.222,3.778
	l-47.222-69.893l-45.333,71.782l11.333-5.667c23.611,56.669,29.277,201.177,30.222,343.795
	c-34.981,15.585-37.87,54.638-5.666,75.559c0.944,0.945,0,132.23,0,132.23l-73.667,54.779l-34-17V844.023L1030.673,794.909z
	 M1060.895,842.135l26.445,17v130.34l-26.445-13.223V842.135z M1198.784,787.354c0,39.668,54.777,35.891,54.777,0
	S1198.784,747.685,1198.784,787.354z M1213.894,787.354c0,16.056,23.611,17.001,24.556,0S1213.894,771.297,1213.894,787.354z
	 M1268.672,891.248l162.443-162.453l143.556,166.23l-66.111-41.559h-51l-15.11,17.002l-20.778-17.002h-85l-11.333,7.557v192.678
	l-41.555,54.779V879.914L1268.672,891.248z M1293.228,878.025l17-11.334v196.455l-17,22.666V878.025z M1429.227,789.243
	l-73.667,49.113h37.778l15.111-11.334l28.333,20.779l13.222-9.445h41.556L1429.227,789.243z M1514.226,609.789v179.454
	l41.556,28.334l122.777-71.781v-88.783l28.333-20.779V502.117l17-17.001v-56.67l-22.667-5.667l-183.221,90.671l-11.333,17.001
	v66.114L1514.226,609.789z M1529.337,517.229l160.555-77.449v20.779l-160.555,75.56V517.229z M1540.671,575.787l135.999-62.336
	l1.889,107.672l-56.667,47.225l-81.221,41.558V575.787z M1523.671,734.462l18.888-15.112v73.67l-18.888-17.001V734.462z
	 M1553.893,717.461v68.003l90.666-54.78v-60.448L1553.893,717.461z M1484.004,1044.256l9.444,15.111
	c0,0-178.303,144.738-241.776,194.566c2.382-1.824,266.161-164.641,268.221-166.23c3.199,0.469,13.223,5.666,13.223,5.666
	l43.443-5.666l13.223-35.891l-5.666-24.559c0.564-0.426,126.753-225.419,126.554-224.789
	c-1.455-0.368-135.916,183.751-151.11,192.677l-20.777-11.334c0,0-10.687,14.215-22.666,28.334
	C1501.851,1028.955,1484.004,1044.256,1484.004,1044.256z M1502.893,1042.367c0,0,22.667,34.945,30.223,35.891
	c7.556,0.943,41.556,3.777,41.556,3.777l-1.89-49.113l-32.11-32.113c0,0-5.338,13.744-15.111,22.668
	C1513.796,1034.217,1502.893,1042.367,1502.893,1042.367z M1518.004,1048.033l17-17l18.889,9.445l-3.777,7.555l-15.111-11.334
	l-11.333,11.334l13.222,15.113l5.666-5.668l3.778,3.777l-9.444,7.557L1518.004,1048.033z M1533.116,1044.256v7.557l17,5.666
	l17-15.111l-18.89-26.445l-9.444,11.332l3.777,3.779l5.667-5.668l11.333,17.002l-9.443,9.445L1533.116,1044.256z"/>
<g>
	<path d="M137.321,1581.236c-3.63,3.627-5.44,8.034-5.44,13.214v57.204c5.799-2.9,12.018-4.354,18.654-4.354h115.964v24.873H150.535
		c-5.185,0-9.59,1.817-13.213,5.44c-3.63,3.63-5.44,8.036-5.44,13.214v44.147c0,5.185,1.811,9.592,5.44,13.214
		c3.623,3.63,8.029,5.44,13.213,5.44h121.873v24.873H150.535c-6.015,0-11.66-1.138-16.945-3.42c-5.286-2.279-9.9-5.387-13.835-9.328
		c-3.939-3.934-7.049-8.549-9.327-13.834c-2.282-5.286-3.419-10.931-3.419-16.945V1594.45c0-6.011,1.137-11.661,3.419-16.944
		c2.278-5.287,5.388-9.896,9.327-13.835c3.936-3.937,8.55-7.047,13.835-9.329c5.286-2.276,10.93-3.419,16.945-3.419h121.873v24.873
		H150.535C145.35,1575.796,140.944,1577.611,137.321,1581.236z"/>
	<path d="M479.389,1778.503h-5.131l-93.503-151.331c-2.646,0.933-4.86,2.563-6.645,4.896c-1.79,2.33-2.682,5.054-2.682,8.16v138.274
		h-18.654v-138.274c0-4.505,0.853-8.744,2.564-12.708c1.709-3.964,4.042-7.422,6.996-10.376c2.951-2.952,6.414-5.282,10.375-6.995
		c3.966-1.71,8.198-2.566,12.709-2.566h5.131l93.503,151.566c2.643-1.086,4.857-2.799,6.645-5.132
		c1.785-2.33,2.682-5.047,2.682-8.158v-138.276h18.654v138.276c0,4.51-0.856,8.742-2.564,12.706
		c-1.714,3.964-4.045,7.426-6.996,10.376c-2.955,2.956-6.413,5.289-10.377,6.996C488.132,1777.65,483.895,1778.503,479.389,1778.503
		z"/>
	<path d="M679.456,1778.503h-75.084c-4.51,0-8.743-0.853-12.707-2.565c-3.965-1.707-7.427-4.04-10.377-6.996
		c-2.956-2.95-5.287-6.412-6.996-10.376c-1.711-3.964-2.564-8.196-2.564-12.706v-10.027h18.654v10.027
		c0,3.886,1.359,7.19,4.08,9.907c2.719,2.724,6.021,4.082,9.91,4.082h75.084c3.882,0,7.187-1.358,9.908-4.082
		c2.718-2.717,4.081-6.021,4.081-9.907v-138.276h18.654v138.276c0,4.51-0.857,8.742-2.564,12.706
		c-1.713,3.964-4.045,7.426-6.996,10.376c-2.955,2.956-6.414,5.289-10.377,6.996C688.197,1777.65,683.961,1778.503,679.456,1778.503
		z"/>
	<path d="M891.875,1778.503h-82.076c-4.509,0-8.743-0.853-12.707-2.565c-3.964-1.707-7.426-4.04-10.377-6.996
		c-2.955-2.95-5.287-6.412-6.996-10.376c-1.712-3.964-2.564-8.196-2.564-12.706v-105.397c0-4.508,0.853-8.744,2.564-12.708
		c1.709-3.964,4.041-7.42,6.996-10.376c2.951-2.95,6.413-5.283,10.377-6.996c3.964-1.709,8.198-2.563,12.707-2.563h82.076
		c4.51,0,8.746,0.854,12.709,2.563c3.965,1.713,7.422,4.046,10.378,6.996c2.95,2.956,5.282,6.412,6.996,10.376
		c1.708,3.964,2.563,8.2,2.563,12.708v105.397c0,4.51-0.855,8.742-2.563,12.706c-1.714,3.964-4.046,7.426-6.996,10.376
		c-2.956,2.956-6.413,5.289-10.378,6.996C900.621,1777.65,896.384,1778.503,891.875,1778.503z M809.798,1626.471
		c-3.887,0-7.191,1.362-9.91,4.082c-2.722,2.721-4.08,6.025-4.08,9.909v105.397c0,3.886,1.358,7.19,4.08,9.907
		c2.719,2.724,6.023,4.082,9.91,4.082h82.076c3.885,0,7.189-1.358,9.912-4.082c2.717-2.717,4.08-6.021,4.08-9.907v-105.397
		c0-3.884-1.363-7.188-4.08-9.909c-2.723-2.72-6.027-4.082-9.912-4.082H809.798z"/>
	<path d="M1142.072,1607.583v69.489c0,4.509-0.854,8.742-2.563,12.706c-1.714,3.964-4.045,7.426-6.996,10.378
		c-2.955,2.954-6.412,5.287-10.379,6.996c-3.961,1.711-8.2,2.563-12.706,2.563h-42.905c2.177,4.354,3.264,9.018,3.264,13.991v54.796
		h-18.654v-54.796c0-3.885-1.361-7.188-4.079-9.91c-2.724-2.719-6.025-4.081-9.91-4.081h-2.565h-16.788
		c-4.512,0-8.745-0.853-12.708-2.563c-3.965-1.709-7.427-4.042-10.377-6.996c-2.953-2.952-5.286-6.414-6.995-10.378
		c-1.712-3.964-2.565-8.197-2.565-12.706v-69.489h18.654v69.489c0,3.886,1.358,7.19,4.081,9.909c2.718,2.722,6.022,4.08,9.91,4.08
		h91.639c3.885,0,7.187-1.358,9.91-4.08c2.717-2.719,4.079-6.023,4.079-9.909v-69.489H1142.072z"/>
	<path d="M1422.268,1778.503h-24.87v-227.892h139.904c5.596,0,11.039,1.089,16.322,3.265c5.286,2.176,9.998,5.34,14.146,9.483
		c8.287,8.292,12.436,18.449,12.436,30.468v56.584c0,6.013-1.142,11.61-3.419,16.788c-2.284,5.185-5.339,9.692-9.172,13.525
		c-3.837,3.837-8.394,6.892-13.68,9.171c-5.286,2.282-10.833,3.42-16.634,3.42h-115.034V1778.503z M1422.268,1668.445h115.034
		c4.975,0,9.221-1.761,12.748-5.289c3.521-3.521,5.284-7.771,5.284-12.745v-56.584c0-4.975-1.763-9.273-5.284-12.902
		c-3.527-3.625-7.773-5.44-12.748-5.44h-115.034V1668.445z"/>
	<path d="M1804.054,1778.503H1785.4v-85.809c-4.512,2.021-9.175,3.032-13.991,3.032h-84.41c-3.886,0-7.19,1.362-9.909,4.079
		c-2.722,2.721-4.08,6.025-4.08,9.91v68.787h-18.654v-170.92h18.654v72.754c4.351-2.178,9.014-3.265,13.989-3.265h84.41
		c3.884,0,7.188-1.358,9.909-4.082c2.72-2.717,4.082-6.021,4.082-9.91v-55.497h18.654V1778.503z"/>
	<path d="M2022.074,1607.583v69.489c0,4.509-0.856,8.742-2.566,12.706c-1.711,3.964-4.043,7.426-6.992,10.378
		c-2.957,2.954-6.413,5.287-10.377,6.996c-3.964,1.711-8.202,2.563-12.709,2.563h-42.906c2.178,4.354,3.268,9.018,3.268,13.991
		v54.796h-18.654v-54.796c0-3.885-1.365-7.188-4.082-9.91c-2.721-2.719-6.025-4.081-9.91-4.081h-2.563h-16.791
		c-4.51,0-8.744-0.853-12.708-2.563c-3.964-1.709-7.427-4.042-10.376-6.996c-2.954-2.952-5.287-6.414-6.996-10.378
		c-1.711-3.964-2.563-8.197-2.563-12.706v-69.489h18.652v69.489c0,3.886,1.36,7.19,4.081,9.909c2.72,2.722,6.024,4.08,9.91,4.08
		h91.639c3.885,0,7.189-1.358,9.91-4.08c2.718-2.719,4.082-6.023,4.082-9.909v-69.489H2022.074z"/>
	<path d="M2217.054,1778.503h-89.821c-5.412,0-10.492-1.023-15.249-3.077c-4.757-2.051-8.91-4.85-12.452-8.394
		c-3.546-3.542-6.346-7.697-8.394-12.453c-2.057-4.756-3.078-9.839-3.078-15.25v-165.928h22.384v165.928
		c0,4.664,1.63,8.631,4.897,11.893c3.263,3.265,7.227,4.896,11.892,4.896h89.821c4.659,0,8.625-1.631,11.891-4.896
		c3.263-3.262,4.897-7.229,4.897-11.893v-0.28h22.384v0.28c0,5.411-1.026,10.494-3.079,15.25c-2.054,4.756-4.852,8.911-8.394,12.453
		c-3.546,3.544-7.694,6.343-12.451,8.394C2227.544,1777.479,2222.462,1778.503,2217.054,1778.503z"/>
	<path d="M2426.63,1618.98c4.205,0,8.16,0.797,11.86,2.392c3.7,1.6,6.926,3.775,9.686,6.53c2.753,2.759,4.931,5.985,6.528,9.685
		c1.595,3.7,2.393,7.655,2.393,11.861v129.055h-17.411v-74.43h-90.531c-3.628,0-6.715,1.271-9.251,3.809
		c-2.54,2.54-3.808,5.625-3.808,9.248v61.373h-17.411v-129.055c0-4.206,0.795-8.161,2.393-11.861
		c1.596-3.699,3.771-6.926,6.53-9.685c2.753-2.755,5.985-4.931,9.686-6.53c3.698-1.595,7.648-2.392,11.861-2.392H2426.63z
		 M2439.686,1686.662v-37.214c0-3.626-1.27-6.71-3.806-9.25c-2.54-2.536-5.625-3.81-9.25-3.81h-77.476
		c-3.628,0-6.715,1.273-9.251,3.81c-2.54,2.54-3.808,5.624-3.808,9.25v40.26c4.061-2.03,8.413-3.046,13.059-3.046H2439.686z"/>
	<path d="M2644.478,1684.051c4.203,2.757,7.541,6.35,10.011,10.772c2.464,4.428,3.7,9.324,3.7,14.69v38.521
		c0,4.207-0.8,8.16-2.396,11.86c-1.6,3.7-3.773,6.931-6.526,9.686c-2.76,2.757-5.989,4.933-9.686,6.527
		c-3.698,1.599-7.653,2.395-11.861,2.395h-109.25V1618.98h101.417c4.203,0,8.158,0.797,11.858,2.392c3.7,1.6,6.927,3.775,9.686,6.53
		c2.753,2.759,4.931,5.985,6.528,9.685c1.594,3.7,2.393,7.655,2.393,11.861v16.538c0,3.34-0.51,6.568-1.521,9.686
		C2647.812,1678.792,2646.361,1681.586,2644.478,1684.051z M2535.88,1636.389v45.703c4.059-2.03,8.413-3.046,13.055-3.046h70.951
		c3.623,0,6.708-1.27,9.248-3.81c2.536-2.536,3.807-5.621,3.807-9.25v-16.538c0-3.626-1.271-6.71-3.807-9.25
		c-2.54-2.536-5.625-3.81-9.248-3.81H2535.88z M2640.778,1709.514c0-3.625-1.272-6.71-3.812-9.25
		c-2.539-2.536-5.621-3.808-9.247-3.808h-78.784c-3.626,0-6.709,1.271-9.247,3.808c-2.54,2.54-3.808,5.625-3.808,9.25v51.578h91.839
		c3.626,0,6.708-1.267,9.247-3.807c2.539-2.538,3.812-5.623,3.812-9.25V1709.514z"/>
</g>
<g style="&st5;">
	<path style="&st3;" d="M436.005,1804.885h-32v-293.2h180c7.199,0,14.199,1.4,21,4.2c6.799,2.8,12.861,6.869,18.199,12.2
		c10.662,10.669,16,23.737,16,39.2v72.8c0,7.737-1.469,14.938-4.4,21.6c-2.938,6.669-6.868,12.469-11.799,17.4
		c-4.938,4.938-10.801,8.868-17.601,11.8c-6.8,2.938-13.938,4.4-21.399,4.4h-148V1804.885z M436.005,1663.285h148
		c6.399,0,11.861-2.263,16.399-6.801c4.531-4.531,6.8-10,6.8-16.399v-72.8c0-6.4-2.269-11.932-6.8-16.601
		c-4.538-4.662-10-7-16.399-7h-148V1663.285z"/>
	<path style="&st3;" d="M927.202,1804.885h-24v-110.4c-5.803,2.602-11.803,3.9-18,3.9h-108.6c-5.001,0-9.253,1.753-12.75,5.25
		c-3.501,3.502-5.25,7.753-5.25,12.75v88.5h-24v-219.9h24v93.601c5.597-2.799,11.597-4.2,18-4.2h108.6
		c4.997,0,9.249-1.748,12.75-5.25c3.497-3.497,5.25-7.748,5.25-12.75v-71.4h24V1804.885z"/>
	<path style="&st3;" d="M1207.702,1584.984v89.4c0,5.803-1.102,11.25-3.3,16.35c-2.203,5.101-5.203,9.554-9,13.351
		c-3.802,3.802-8.25,6.802-13.351,9c-5.1,2.203-10.552,3.3-16.35,3.3h-55.2c2.799,5.602,4.2,11.602,4.2,18v70.5h-24v-70.5
		c0-4.997-1.753-9.248-5.25-12.75c-3.502-3.497-7.753-5.25-12.75-5.25h-3.3h-21.601c-5.803,0-11.25-1.097-16.35-3.3
		c-5.101-2.198-9.554-5.198-13.351-9c-3.801-3.797-6.801-8.25-9-13.351c-2.203-5.1-3.3-10.547-3.3-16.35v-89.4h24v89.4
		c0,5.002,1.749,9.253,5.25,12.75c3.497,3.502,7.749,5.25,12.75,5.25h117.9c4.997,0,9.248-1.748,12.75-5.25
		c3.497-3.497,5.25-7.748,5.25-12.75v-89.4H1207.702z"/>
	<path style="&st3;" d="M1458.557,1804.885h-115.561c-6.964,0-13.5-1.316-19.62-3.96c-6.12-2.638-11.464-6.238-16.02-10.8
		c-4.563-4.557-8.162-9.9-10.8-16.021c-2.645-6.12-3.96-12.656-3.96-19.62v-213.479h28.8v213.479c0,6.002,2.098,11.104,6.3,15.301
		c4.196,4.201,9.298,6.3,15.3,6.3h115.561c5.996,0,11.098-2.099,15.3-6.3c4.196-4.196,6.3-9.299,6.3-15.301v-0.359h28.8v0.359
		c0,6.964-1.321,13.5-3.96,19.62c-2.644,6.12-6.243,11.464-10.8,16.021c-4.562,4.562-9.9,8.162-16.02,10.8
		C1472.057,1803.568,1465.515,1804.885,1458.557,1804.885z"/>
	<path style="&st3;" d="M1728.195,1599.645c5.412,0,10.5,1.028,15.26,3.08c4.761,2.057,8.912,4.856,12.46,8.4
		c3.544,3.548,6.344,7.7,8.4,12.46c2.052,4.76,3.08,9.848,3.08,15.26v166.04h-22.4v-95.76h-116.479c-4.668,0-8.637,1.636-11.9,4.899
		c-3.268,3.269-4.899,7.236-4.899,11.9v78.96h-22.4v-166.04c0-5.412,1.023-10.5,3.08-15.26c2.052-4.76,4.852-8.912,8.4-12.46
		c3.543-3.544,7.699-6.344,12.46-8.4c4.76-2.052,9.844-3.08,15.26-3.08H1728.195z M1744.995,1686.725v-47.88
		c0-4.664-1.636-8.632-4.899-11.9c-3.269-3.264-7.236-4.899-11.9-4.899h-99.68c-4.668,0-8.637,1.636-11.9,4.899
		c-3.268,3.269-4.899,7.236-4.899,11.9v51.8c5.224-2.611,10.823-3.92,16.8-3.92H1744.995z"/>
	<path style="&st3;" d="M2008.473,1683.365c5.412,3.548,9.704,8.168,12.881,13.859c3.172,5.696,4.76,11.996,4.76,18.9v49.56
		c0,5.416-1.028,10.5-3.08,15.26c-2.057,4.761-4.856,8.917-8.4,12.46c-3.548,3.549-7.7,6.349-12.46,8.4
		c-4.76,2.057-9.848,3.08-15.26,3.08h-140.56v-205.24h130.479c5.412,0,10.5,1.028,15.26,3.08c4.761,2.057,8.912,4.856,12.46,8.4
		c3.544,3.548,6.344,7.7,8.4,12.46c2.052,4.76,3.08,9.848,3.08,15.26v21.28c0,4.296-0.656,8.448-1.96,12.46
		C2012.765,1676.601,2010.897,1680.193,2008.473,1683.365z M1868.753,1622.045v58.8c5.224-2.612,10.824-3.92,16.8-3.92h91.28
		c4.664,0,8.632-1.632,11.9-4.9c3.264-3.264,4.899-7.231,4.899-11.899v-21.28c0-4.664-1.636-8.632-4.899-11.9
		c-3.269-3.264-7.236-4.899-11.9-4.899H1868.753z M2003.713,1716.125c0-4.664-1.636-8.632-4.899-11.9
		c-3.269-3.264-7.236-4.899-11.9-4.899h-101.36c-4.668,0-8.636,1.636-11.899,4.899c-3.269,3.269-4.9,7.236-4.9,11.9v66.359h118.16
		c4.664,0,8.632-1.632,11.9-4.899c3.264-3.264,4.899-7.232,4.899-11.9V1716.125z"/>
</g>
</svg>
